<?xml version="1.0" encoding="utf-8"?>
<!-- Generator: Adobe Illustrator 18.1.1, SVG Export Plug-In . SVG Version: 6.00 Build 0)  -->
<svg version="1.1" id="Layer_1" xmlns="http://www.w3.org/2000/svg" xmlns:xlink="http://www.w3.org/1999/xlink" x="0px" y="0px"
	 width="300px" height="56.7px" viewBox="0 0 300 56.7" enable-background="new 0 0 300 56.7" xml:space="preserve">
<g>
	<polygon fill="#EC1C24" points="113,27.5 110.6,34.6 115.2,34.6 	"/>
	<path fill="#EC1C24" d="M3.6,29.8c0-5.6,0.3-9.9,0.8-12.8c0.5-2.9,1.9-5.5,4.1-7.7c2.2-2.2,4.6-3.9,7-4.9c2.5-1,5.2-1.5,8.1-1.5
		c4.2,0,7.8,1,10.9,2.9c-0.4-0.5-0.8-1-1.3-1.4c-3.6-3-8-4.5-13.2-4.5c-3,0-5.7,0.5-8.1,1.5c-2.5,1-4.8,2.6-7,4.9
		c-2.2,2.2-3.6,4.8-4.1,7.7C0.3,17,0,21.2,0,26.9c0,5.4,0.3,9.6,0.8,12.7c0.5,3,2.4,6.2,5.6,9.4c0.9,0.9,1.9,1.7,3.1,2.3
		c-2.9-3-4.6-5.9-5.1-8.8C3.9,39.5,3.6,35.2,3.6,29.8z"/>
	<path fill="#EC1C24" d="M25.7,14.8c0.5,0.9,0.9,1.9,1.2,3.1h2.5c-0.3-0.6-0.7-1.2-1.1-1.7C27.6,15.5,26.8,15,25.7,14.8z"/>
	<path fill="#EC1C24" d="M23.7,45.1c2,0,3.5-0.5,4.5-1.4c1-0.9,1.8-2.1,2.3-3.7h8.9c0.3-0.9,0.5-1.9,0.7-2.9H26.9
		c-0.5,1.6-1.3,2.8-2.3,3.7c-1,0.9-2.5,1.4-4.5,1.4c-0.7,0-1.4-0.1-2-0.2c0.2,0.4,0.5,0.9,0.8,1.3C19.8,44.5,21.5,45.1,23.7,45.1z"
		/>
	<polygon fill="#EC1C24" points="74.4,23.7 74.4,3.4 83.8,3.4 83.8,0.4 70.8,0.4 70.8,20.8 60.6,20.8 60.6,23.7 	"/>
	<rect x="70.8" y="35.3" fill="#EC1C24" width="3.6" height="18.1"/>
	<polygon fill="#EC1C24" points="57,3.4 57,0.4 44,0.4 44,53.4 47.6,53.4 47.6,3.4 	"/>
	<polygon fill="#EC1C24" points="116.5,3.4 115.4,0.4 105.4,0.4 87.4,50 87.4,53.4 90.8,53.4 109,3.4 	"/>
	<polygon fill="#EC1C24" points="113,27.5 115.2,34.6 110.6,34.6 109.6,37.6 118.8,37.6 114.4,23.4 	"/>
	<polygon fill="#EC1C24" points="119.5,48.4 121.1,53.4 123.8,53.4 122.2,48.4 	"/>
	<polygon fill="#EC1C24" points="86.2,53.4 87.4,53.4 87.4,50 	"/>
	<polygon fill="#EC1C24" points="184.6,3.4 193.7,3.4 194.6,0.4 181,0.4 175.3,23.4 177.7,31.2 	"/>
	<polygon fill="#EC1C24" points="141.6,3.4 140.8,0.4 127.2,0.4 141.8,53.4 144.6,53.4 130.9,3.4 	"/>
	<polygon fill="#EC1C24" points="163.2,34.3 169.4,53.4 172.1,53.4 164.5,30.3 	"/>
	<polygon fill="#EC1C24" points="159.9,3.4 166.4,3.4 165.5,0.4 156.3,0.4 149.3,23.1 151.4,31.2 	"/>
	<polygon fill="#EC1C24" points="212.9,3.4 212.9,0.4 199.9,0.4 199.9,53.4 203.5,53.4 203.5,3.4 	"/>
	<rect x="216.5" y="41.8" fill="#EC1C24" width="18.6" height="2.9"/>
	<polygon fill="#EC1C24" points="252.7,3.4 252.7,0.4 239.7,0.4 239.7,53.4 243.3,53.4 243.3,3.4 	"/>
	<rect x="277" y="20.9" fill="#EC1C24" width="16" height="2.9"/>
	<rect x="277" y="41.8" fill="#EC1C24" width="19.4" height="2.9"/>
	<polygon fill="#EC1C24" points="296.4,3.4 296.4,0.4 260.4,0.4 260.4,53.4 264,53.4 264,3.4 	"/>
</g>
<g>
	<path fill="#18BFD9" d="M33.3,49.5c-3.6,2.8-8,4.2-13.3,4.2c-4.2,0-7.7-0.8-10.5-2.5c0.2,0.2,0.3,0.4,0.5,0.6
		c3.2,3.2,7.8,4.8,13.6,4.8c5.2,0,9.7-1.4,13.3-4.2c3.6-2.8,5.9-7,6.8-12.4h-4.3C38.2,44.1,36.2,47.3,33.3,49.5z"/>
	<path fill="#18BFD9" d="M18.5,16.8c0.6-0.8,1.3-1.4,2.2-1.7c0.8-0.4,1.9-0.6,3-0.6c0.7,0,1.4,0.1,2,0.2c-0.3-0.6-0.7-1.1-1.1-1.5
		c-1-1.1-2.5-1.6-4.5-1.6c-1.2,0-2.2,0.2-3,0.6c-0.8,0.4-1.6,1-2.2,1.7c-0.6,0.8-1.1,2.1-1.4,3.8c-0.3,1.8-0.5,4.8-0.5,9.2
		c0,4.5,0.1,7.6,0.4,9.2c0.3,1.6,0.9,3,1.9,4.3c0.6,0.8,1.6,1.4,2.8,1.6c-0.5-0.9-0.9-1.9-1.1-3c-0.3-1.6-0.4-4.7-0.4-9.2
		c0-4.4,0.2-7.4,0.5-9.2C17.5,18.9,17.9,17.6,18.5,16.8z"/>
	<path fill="#18BFD9" d="M29.4,17.8c0.4,0.8,0.8,1.8,1.1,2.9h13.2c-0.9-5.8-3.2-10.3-6.8-13.3c-0.7-0.6-1.5-1.1-2.3-1.6
		c2.8,2.9,4.7,6.9,5.5,11.9H29.4z"/>
	<polygon fill="#18BFD9" points="57,32.4 57,53.4 47.6,53.4 47.6,56.4 60.6,56.4 60.6,35.3 70.8,35.3 70.8,32.4 	"/>
	<polygon fill="#18BFD9" points="87.4,50 87.4,3.4 83.8,3.4 83.8,53.4 74.4,53.4 74.4,56.4 87.4,56.4 87.4,53.4 86.2,53.4 	"/>
	<rect x="57" y="3.4" fill="#18BFD9" width="3.6" height="17.4"/>
	<polygon fill="#18BFD9" points="102.4,45.5 99.8,53.4 90.8,53.4 89.8,56.4 103.4,56.4 106,48.4 119.5,48.4 118.6,45.5 	"/>
	<polygon fill="#18BFD9" points="110.8,20.5 106,34.6 110.6,34.6 113,27.5 	"/>
	<polygon fill="#18BFD9" points="116.5,3.4 134.7,53.4 123.8,53.4 124.7,56.4 138.3,56.4 119,3.4 	"/>
	<polygon fill="#18BFD9" points="152.4,53.4 144.6,53.4 145.4,56.4 156,56.4 163.2,34.3 160.9,27.3 	"/>
	<polygon fill="#18BFD9" points="180.1,53.4 172.1,53.4 173,56.4 183.7,56.4 198.2,3.4 193.7,3.4 	"/>
	<polygon fill="#18BFD9" points="149.3,23.1 144.4,3.4 141.6,3.4 147.8,28.2 	"/>
	<polygon fill="#18BFD9" points="175.3,23.4 169.1,3.4 166.4,3.4 174.1,28.2 	"/>
	<polygon fill="#18BFD9" points="235.1,53.4 203.5,53.4 203.5,56.4 238.7,56.4 238.7,44.8 235.1,44.8 	"/>
	<rect x="212.9" y="3.4" fill="#18BFD9" width="3.6" height="38.4"/>
	<polygon fill="#18BFD9" points="252.7,53.4 243.3,53.4 243.3,56.4 256.3,56.4 256.3,3.4 252.7,3.4 	"/>
	<polygon fill="#18BFD9" points="264,53.4 264,56.4 300,56.4 300,44.8 296.4,44.8 296.4,53.4 	"/>
	<polygon fill="#18BFD9" points="300,15 300,3.4 296.4,3.4 296.4,12 273.4,12 273.4,20.9 277,20.9 277,15 	"/>
	<polygon fill="#18BFD9" points="273.4,32.5 273.4,41.8 277,41.8 277,35.4 296.7,35.4 296.7,23.8 293.1,23.8 293.1,32.5 	"/>
</g>
<g>
	<path fill="#FFFFFF" d="M13.4,36.1c-0.3-1.6-0.4-4.7-0.4-9.2c0-4.4,0.2-7.4,0.5-9.2c0.3-1.8,0.8-3,1.4-3.8c0.6-0.8,1.3-1.4,2.2-1.7
		c0.8-0.4,1.9-0.6,3-0.6c2,0,3.5,0.5,4.5,1.6c0.4,0.4,0.7,1,1.1,1.5c1.1,0.3,1.9,0.7,2.5,1.4c0.4,0.5,0.8,1,1.1,1.7h10.7
		c-0.8-5.1-2.7-9-5.5-11.9C31.5,4,27.8,2.9,23.7,2.9c-3,0-5.7,0.5-8.1,1.5c-2.5,1-4.8,2.6-7,4.9c-2.2,2.2-3.6,4.8-4.1,7.7
		c-0.5,2.9-0.8,7.2-0.8,12.8c0,5.4,0.3,9.6,0.8,12.7c0.5,2.9,2.2,5.8,5.1,8.8c2.8,1.7,6.3,2.5,10.5,2.5c5.2,0,9.7-1.4,13.3-4.2
		c2.9-2.3,4.9-5.5,6.1-9.5h-8.9c-0.5,1.5-1.3,2.8-2.3,3.7c-1,0.9-2.5,1.4-4.5,1.4c-2.3,0-3.9-0.6-4.8-1.9c-0.3-0.4-0.5-0.9-0.8-1.3
		c-1.2-0.3-2.2-0.8-2.8-1.6C14.4,39.1,13.7,37.7,13.4,36.1z"/>
	<polygon fill="#FFFFFF" points="83.8,3.4 74.4,3.4 74.4,23.7 60.6,23.7 60.6,20.8 57,20.8 57,3.4 47.6,3.4 47.6,53.4 57,53.4 
		57,32.4 70.8,32.4 70.8,35.3 74.4,35.3 74.4,53.4 83.8,53.4 	"/>
	<path fill="#FFFFFF" d="M116.5,3.4H109l-18.2,50h8.9l2.6-7.9h16.3l0.9,2.9h2.7l1.5,5h10.9L116.5,3.4z M109.6,37.6l1-2.9H106
		l4.8-14.1l2.2,7l1.4-4.1l4.5,14.1H109.6z"/>
	<polygon fill="#FFFFFF" points="193.7,3.4 184.6,3.4 177.7,31.2 175.3,23.4 174.1,28.2 166.4,3.4 159.9,3.4 151.4,31.2 149.3,23.1 
		147.8,28.2 141.6,3.4 130.9,3.4 144.6,53.4 152.4,53.4 160.9,27.3 163.2,34.3 164.5,30.3 172.1,53.4 180.1,53.4 	"/>
	<polygon fill="#FFFFFF" points="235.1,44.8 216.5,44.8 216.5,41.8 212.9,41.8 212.9,3.4 203.5,3.4 203.5,53.4 235.1,53.4 	"/>
	<rect x="243.3" y="3.4" fill="#FFFFFF" width="9.4" height="50"/>
	<polygon fill="#FFFFFF" points="273.4,12 296.4,12 296.4,3.4 264,3.4 264,53.4 296.4,53.4 296.4,44.8 277,44.8 277,41.8 
		273.4,41.8 273.4,32.5 293.1,32.5 293.1,23.8 277,23.8 277,20.9 273.4,20.9 	"/>
</g>
</svg>
